<svg width="24" height="24" viewBox="0 0 24 24" fill="none" xmlns="http://www.w3.org/2000/svg">
<path fill-rule="evenodd" clip-rule="evenodd" d="M9.6 19.45C9.35147 19.7813 8.88137 19.8485 8.55 19.6L4.55 16.6C4.36115 16.4583 4.25 16.236 4.25 16C4.25 15.7639 4.36115 15.5416 4.55 15.4L8.55 12.4C8.88137 12.1514 9.35147 12.2186 9.6 12.55C9.84853 12.8813 9.78137 13.3514 9.45 13.6L7.25 15.25L15 15.25C16.7949 15.25 18.25 13.7949 18.25 12C18.25 10.205 16.7949 8.74996 15 8.74996L5 8.74996C4.58579 8.74996 4.25 8.41417 4.25 7.99996C4.25 7.58574 4.58579 7.24996 5 7.24996L15 7.24996C17.6234 7.24996 19.75 9.3766 19.75 12C19.75 14.6233 17.6234 16.75 15 16.75H7.25L9.45 18.4C9.78137 18.6485 9.84853 19.1186 9.6 19.45Z" fill="#353437"/>
</svg>
