<svg width="1867" height="1564" viewBox="0 0 1867 1564" fill="none" xmlns="http://www.w3.org/2000/svg">
<path d="M1784.3 743.815C1762.03 460.863 1549.9 90.413 1253.77 165.051C979.203 234.253 1109.46 436.193 878.905 569.339C648.35 702.486 400.05 416.84 183.43 597.028C57.7003 701.614 28.3603 904.586 136.88 1087.29C245.39 1269.99 491.75 1432.41 917.424 1455.91C1319.52 1478.1 1539.47 1341.17 1657.29 1178.15C1775.1 1015.12 1790.76 826.004 1784.3 743.815Z" stroke="url(#paint0_linear_502_806)" stroke-width="0.87" stroke-miterlimit="10"/>
<path d="M931.843 1432.43C1300.62 1453.32 1503.6 1328.66 1612.92 1179.16C1721.27 1030.47 1736.83 857.616 1731.64 780.66C1713.12 518.79 1518.74 175.435 1244.86 236.993C991.981 293.832 1103.27 475.28 890.156 596.306C884.187 599.672 878.093 602.81 871.886 605.714C706.67 683.059 533.36 554.849 373.16 576.933C329.67 582.928 287.07 599.787 246.1 634.71C128.25 735.163 102.58 923.41 203.99 1091.71C306.08 1260.73 536.99 1409.72 931.843 1432.43Z" stroke="url(#paint1_linear_502_806)" stroke-width="0.87" stroke-miterlimit="10"/>
<path d="M946.261 1408.95C1281.71 1428.53 1467.73 1316.15 1568.55 1180.17C1667.45 1045.82 1683.13 889.217 1678.98 817.509C1665.03 576.67 1487.63 260.48 1235.96 308.937C1004.81 353.441 1097.45 515.04 901.405 623.273C895.754 626.393 890.073 629.214 884.394 631.813C731.09 702.151 571.17 591.971 424.92 616.68C384.98 623.427 345.94 639.817 308.76 672.395C198.8 768.753 176.8 942.236 271.1 1096.14C366.78 1251.48 582.24 1387.02 946.261 1408.95Z" stroke="url(#paint2_linear_502_806)" stroke-width="0.87" stroke-miterlimit="10"/>
<path d="M960.68 1385.46C1262.8 1403.75 1432.2 1303.9 1524.19 1181.17C1613.96 1061.41 1629.3 920.827 1626.32 854.354C1616.45 634.591 1456.6 345.559 1227.05 380.878C1017.69 413.09 1091.41 554.421 912.653 650.238C907.425 653.04 902.158 655.565 896.902 657.909C755.51 721.24 608.96 629.129 476.68 656.424C440.29 663.932 404.82 679.869 371.42 710.077C269.37 802.387 251.02 961.057 338.21 1100.56C427.48 1242.22 627.48 1364.33 960.68 1385.46Z" stroke="url(#paint3_linear_502_806)" stroke-width="0.87" stroke-miterlimit="10"/>
<path d="M975.098 1361.98C1243.86 1379.52 1396.42 1291.46 1479.82 1182.18C1560.23 1076.82 1575.46 952.44 1573.66 891.197C1567.82 692.524 1425.65 430.695 1218.15 452.817C1030.66 472.806 1085.34 593.758 923.903 677.201C919.096 679.686 914.246 681.914 909.41 684.004C779.93 740.327 646.73 666.338 528.44 696.167C495.6 704.448 463.72 719.946 434.09 747.757C339.97 836.081 324.91 980.082 405.32 1104.99C487.84 1233.18 672.68 1342.25 975.098 1361.98Z" stroke="url(#paint4_linear_502_806)" stroke-width="0.87" stroke-miterlimit="10"/>
<path d="M989.518 1338.51C1224.94 1354.83 1360.63 1279.03 1435.46 1183.2C1506.47 1092.24 1521.6 984.067 1521 928.05C1519.11 750.479 1394.82 515.94 1209.24 524.766C1043.72 532.639 1079.22 633.051 935.151 704.175C930.764 706.34 926.33 708.272 921.918 710.108C804.35 759.425 684.48 703.627 580.2 735.92C550.9 744.993 522.65 760.067 496.75 785.448C410.61 869.862 399.08 998.95 472.43 1109.42C548.49 1223.97 717.91 1319.68 989.518 1338.51Z" stroke="url(#paint5_linear_502_806)" stroke-width="0.87" stroke-miterlimit="10"/>
<path d="M1003.94 1315.02C1206.03 1330.09 1324.82 1266.58 1391.09 1184.2C1452.69 1107.63 1467.71 1015.69 1468.34 964.895C1470.3 808.441 1364.12 601.351 1200.34 596.709C1056.89 592.642 1073.04 672.26 946.4 731.141C942.431 732.986 938.417 734.624 934.426 736.207C828.77 778.515 722.23 741.011 631.96 775.665C606.19 785.555 581.6 800.219 559.41 823.13C481.32 903.738 473.27 1017.8 539.54 1113.85C609.15 1214.75 763.14 1297.07 1003.94 1315.02Z" stroke="url(#paint6_linear_502_806)" stroke-width="0.87" stroke-miterlimit="10"/>
<path d="M1018.35 1291.54C1187.12 1305.31 1288.97 1254.11 1346.73 1185.21C1398.88 1123 1413.77 1047.32 1415.68 1001.74C1421.35 866.414 1334.33 679.473 1191.43 668.65C1069.47 659.413 1066.79 711.354 957.647 758.107C954.095 759.628 950.501 760.976 946.931 762.305C853.19 797.607 760 778.529 683.71 815.412C661.49 826.156 640.6 840.421 622.07 860.815C552.16 937.755 547.49 1036.63 606.65 1118.27C669.85 1205.51 808.37 1274.41 1018.35 1291.54Z" stroke="url(#paint7_linear_502_806)" stroke-width="0.87" stroke-miterlimit="10"/>
<path d="M1032.77 1268.06C1168.21 1280.45 1253.06 1241.6 1302.36 1186.22C1345 1138.32 1359.78 1078.95 1363.02 1038.59C1372.2 924.387 1302.96 773.29 1182.53 740.592C1083.43 713.687 1060.46 750.276 968.897 785.072C965.759 786.265 962.587 787.326 959.44 788.401C877.61 816.697 797.85 816.221 735.48 855.156C716.81 866.806 699.66 880.674 684.73 898.497C623.21 971.966 621.77 1055.43 673.76 1122.7C730.59 1196.24 853.61 1251.67 1032.77 1268.06Z" stroke="url(#paint8_linear_502_806)" stroke-width="0.87" stroke-miterlimit="10"/>
<path d="M1030.96 1230.29C1146.9 1241.11 1219.29 1209.71 1261.19 1164.59C1297.42 1125.57 1309.77 1077.02 1312.34 1043.97C1319.61 950.485 1259.6 826.388 1156.4 799.011C1071.49 776.485 1052.01 806.338 973.856 834.384C971.177 835.346 968.469 836.199 965.781 837.064C895.917 859.834 827.67 859.05 774.51 890.63C758.6 900.079 744 911.353 731.32 925.877C679.05 985.746 678.25 1054.1 723.07 1109.45C772.07 1169.96 877.596 1215.98 1030.96 1230.29Z" stroke="url(#paint9_linear_502_806)" stroke-width="0.87" stroke-miterlimit="10"/>
<defs>
<linearGradient id="paint0_linear_502_806" x1="1025.18" y1="112.088" x2="846.81" y2="1451.72" gradientUnits="userSpaceOnUse">
<stop stop-color="#EBEBEB"/>
<stop offset="1" stop-color="#EBEBEB" stop-opacity="0"/>
</linearGradient>
<linearGradient id="paint1_linear_502_806" x1="1026.83" y1="189.749" x2="861.99" y2="1427.76" gradientUnits="userSpaceOnUse">
<stop stop-color="#EBEBEB"/>
<stop offset="1" stop-color="#EBEBEB" stop-opacity="0"/>
</linearGradient>
<linearGradient id="paint2_linear_502_806" x1="1028.57" y1="267.247" x2="877.233" y2="1403.82" gradientUnits="userSpaceOnUse">
<stop stop-color="#EBEBEB"/>
<stop offset="1" stop-color="#EBEBEB" stop-opacity="0"/>
</linearGradient>
<linearGradient id="paint3_linear_502_806" x1="1030.37" y1="344.528" x2="892.509" y2="1379.88" gradientUnits="userSpaceOnUse">
<stop stop-color="#EBEBEB"/>
<stop offset="1" stop-color="#EBEBEB" stop-opacity="0"/>
</linearGradient>
<linearGradient id="paint4_linear_502_806" x1="1032.16" y1="421.485" x2="907.713" y2="1356.09" gradientUnits="userSpaceOnUse">
<stop stop-color="#EBEBEB"/>
<stop offset="1" stop-color="#EBEBEB" stop-opacity="0"/>
</linearGradient>
<linearGradient id="paint5_linear_502_806" x1="1034.09" y1="497.999" x2="923.017" y2="1332.2" gradientUnits="userSpaceOnUse">
<stop stop-color="#EBEBEB"/>
<stop offset="1" stop-color="white" stop-opacity="0"/>
<stop offset="1" stop-color="#EBEBEB" stop-opacity="0"/>
</linearGradient>
<linearGradient id="paint6_linear_502_806" x1="1036.19" y1="573.783" x2="938.386" y2="1308.3" gradientUnits="userSpaceOnUse">
<stop stop-color="#EBEBEB"/>
<stop offset="1" stop-color="#EBEBEB" stop-opacity="0"/>
</linearGradient>
<linearGradient id="paint7_linear_502_806" x1="1038.6" y1="648.023" x2="953.864" y2="1284.42" gradientUnits="userSpaceOnUse">
<stop stop-color="#EBEBEB"/>
<stop offset="1" stop-color="#EBEBEB" stop-opacity="0"/>
</linearGradient>
<linearGradient id="paint8_linear_502_806" x1="1041.63" y1="719.083" x2="969.534" y2="1260.55" gradientUnits="userSpaceOnUse">
<stop stop-color="#EBEBEB"/>
<stop offset="1" stop-color="#EBEBEB" stop-opacity="0"/>
</linearGradient>
<linearGradient id="paint9_linear_502_806" x1="1035.75" y1="780.697" x2="976.746" y2="1223.81" gradientUnits="userSpaceOnUse">
<stop stop-color="#EBEBEB"/>
<stop offset="1" stop-color="#EBEBEB" stop-opacity="0"/>
</linearGradient>
</defs>
</svg>
