<svg width="1867" height="1039" viewBox="0 0 1867 1039" fill="none" xmlns="http://www.w3.org/2000/svg">
<g opacity="0.08">
<path d="M82.234 669.815C104.5 386.863 316.63 16.4132 612.763 91.0512C887.327 160.253 757.072 362.193 987.625 495.339C1218.18 628.486 1466.48 342.84 1683.1 523.028C1808.83 627.614 1838.17 830.586 1729.65 1013.29C1621.14 1195.99 1374.78 1358.41 949.106 1381.91C547.007 1404.1 327.056 1267.17 209.244 1104.15C91.433 941.12 75.766 752.004 82.234 669.815Z" stroke="url(#paint0_linear_91_239)" stroke-width="0.87" stroke-miterlimit="10"/>
<path d="M881.66 1358.43C512.887 1379.32 309.903 1254.66 200.584 1105.16C92.2324 956.47 76.6744 783.616 81.8654 706.66C100.382 444.79 294.764 101.435 568.64 162.993C821.522 219.832 710.237 401.28 923.347 522.306C929.316 525.671 935.411 528.81 941.617 531.714C1106.83 609.059 1280.14 480.849 1440.34 502.933C1483.83 508.928 1526.43 525.787 1567.4 560.71C1685.25 661.163 1710.92 849.41 1609.51 1017.71C1507.42 1186.73 1276.51 1335.72 881.66 1358.43Z" stroke="url(#paint1_linear_91_239)" stroke-width="0.87" stroke-miterlimit="10"/>
<path d="M814.311 1334.95C478.863 1354.53 292.846 1242.15 192.018 1106.17C93.1258 971.82 77.4377 815.217 81.5937 743.509C95.5467 502.67 272.939 186.48 524.614 234.937C755.765 279.441 663.118 441.04 859.167 549.273C864.818 552.393 870.499 555.214 876.178 557.813C1029.48 628.151 1189.4 517.971 1335.65 542.68C1375.59 549.427 1414.63 565.817 1451.81 598.395C1561.77 694.753 1583.77 868.236 1489.47 1022.14C1393.79 1177.48 1178.33 1313.02 814.311 1334.95Z" stroke="url(#paint2_linear_91_239)" stroke-width="0.87" stroke-miterlimit="10"/>
<path d="M746.977 1311.46C444.854 1329.75 275.457 1229.9 183.468 1107.17C93.6975 987.41 78.3555 846.827 81.3385 780.354C91.2035 560.591 251.059 271.559 480.603 306.878C689.962 339.09 616.245 480.421 795.004 576.238C800.232 579.04 805.499 581.565 810.755 583.909C952.147 647.24 1098.7 555.129 1230.98 582.424C1267.37 589.932 1302.84 605.869 1336.24 636.077C1438.29 728.387 1456.64 887.057 1369.45 1026.56C1280.18 1168.22 1080.18 1290.33 746.977 1311.46Z" stroke="url(#paint3_linear_91_239)" stroke-width="0.87" stroke-miterlimit="10"/>
<path d="M679.699 1287.98C410.937 1305.52 258.373 1217.46 174.973 1108.18C94.5718 1002.82 79.3388 878.44 81.1358 817.197C86.9728 618.524 229.143 356.695 436.647 378.817C624.135 398.806 569.459 519.758 730.894 603.201C735.701 605.686 740.551 607.914 745.387 610.004C874.867 666.327 1008.07 592.338 1126.36 622.167C1159.2 630.448 1191.08 645.946 1220.71 673.757C1314.83 762.081 1329.89 906.082 1249.48 1030.99C1166.96 1159.18 982.117 1268.25 679.699 1287.98Z" stroke="url(#paint4_linear_91_239)" stroke-width="0.87" stroke-miterlimit="10"/>
<path d="M612.5 1264.51C377.073 1280.83 241.384 1205.03 166.559 1109.2C95.5436 1018.24 80.4216 910.067 81.0166 854.05C82.9026 676.479 207.197 441.94 392.773 450.766C558.295 458.639 522.8 559.051 666.867 630.175C671.254 632.34 675.688 634.272 680.1 636.108C797.668 685.425 917.538 629.627 1021.82 661.92C1051.12 670.993 1079.37 686.067 1105.27 711.448C1191.41 795.862 1202.94 924.95 1129.59 1035.42C1053.53 1149.97 884.108 1245.68 612.5 1264.51Z" stroke="url(#paint5_linear_91_239)" stroke-width="0.87" stroke-miterlimit="10"/>
<path d="M545.433 1241.02C343.338 1256.09 224.548 1192.58 158.276 1110.2C96.6737 1033.63 81.6627 941.69 81.0267 890.895C79.0647 734.441 185.252 527.351 349.028 522.709C492.479 518.642 476.326 598.26 602.968 657.141C606.937 658.986 610.951 660.624 614.942 662.207C720.598 704.515 827.138 667.011 917.408 701.665C943.178 711.555 967.768 726.219 989.958 749.13C1068.05 829.738 1076.1 943.8 1009.83 1039.85C940.218 1140.75 786.228 1223.07 545.433 1241.02Z" stroke="url(#paint6_linear_91_239)" stroke-width="0.87" stroke-miterlimit="10"/>
<path d="M478.589 1217.54C309.824 1231.31 207.973 1180.11 150.216 1111.21C98.0658 1049 83.1698 973.32 81.2608 927.74C75.5948 792.414 162.614 605.473 305.508 594.65C427.47 585.413 430.148 637.354 539.295 684.107C542.847 685.628 546.441 686.976 550.011 688.305C643.752 723.607 736.942 704.529 813.232 741.412C835.452 752.156 856.342 766.421 874.872 786.815C944.782 863.755 949.452 962.63 890.292 1044.27C827.092 1131.51 688.572 1200.41 478.589 1217.54Z" stroke="url(#paint7_linear_91_239)" stroke-width="0.87" stroke-miterlimit="10"/>
<path d="M412.062 1194.06C276.622 1206.45 191.775 1167.6 142.473 1112.22C99.837 1064.32 85.055 1004.95 81.811 964.59C72.634 850.387 141.871 699.29 262.304 666.592C361.399 639.687 384.376 676.276 475.937 711.072C479.075 712.265 482.247 713.326 485.394 714.401C567.224 742.697 646.984 742.221 709.354 781.156C728.024 792.806 745.174 806.674 760.104 824.497C821.624 897.966 823.064 981.43 771.074 1048.7C714.244 1122.24 591.224 1177.67 412.062 1194.06Z" stroke="url(#paint8_linear_91_239)" stroke-width="0.87" stroke-miterlimit="10"/>
<path d="M362.969 1156.29C247.032 1167.11 174.639 1135.71 132.741 1090.59C96.5082 1051.57 84.1632 1003.02 81.5932 969.97C74.3222 876.485 134.326 752.388 237.528 725.011C322.444 702.485 341.916 732.338 420.073 760.384C422.752 761.346 425.46 762.199 428.148 763.064C498.012 785.834 566.259 785.05 619.419 816.63C635.329 826.079 649.929 837.353 662.609 851.877C714.879 911.746 715.679 980.1 670.859 1035.45C621.859 1095.96 516.333 1141.98 362.969 1156.29Z" stroke="url(#paint9_linear_91_239)" stroke-width="0.87" stroke-miterlimit="10"/>
</g>
<defs>
<linearGradient id="paint0_linear_91_239" x1="841.351" y1="38.0882" x2="1019.72" y2="1377.72" gradientUnits="userSpaceOnUse">
<stop stop-color="#EBEBEB"/>
<stop offset="1" stop-color="#EBEBEB" stop-opacity="0"/>
</linearGradient>
<linearGradient id="paint1_linear_91_239" x1="786.676" y1="115.749" x2="951.513" y2="1353.76" gradientUnits="userSpaceOnUse">
<stop stop-color="#EBEBEB"/>
<stop offset="1" stop-color="#EBEBEB" stop-opacity="0"/>
</linearGradient>
<linearGradient id="paint2_linear_91_239" x1="732.005" y1="193.247" x2="883.339" y2="1329.82" gradientUnits="userSpaceOnUse">
<stop stop-color="#EBEBEB"/>
<stop offset="1" stop-color="#EBEBEB" stop-opacity="0"/>
</linearGradient>
<linearGradient id="paint3_linear_91_239" x1="677.291" y1="270.528" x2="815.148" y2="1305.88" gradientUnits="userSpaceOnUse">
<stop stop-color="#EBEBEB"/>
<stop offset="1" stop-color="#EBEBEB" stop-opacity="0"/>
</linearGradient>
<linearGradient id="paint4_linear_91_239" x1="622.641" y1="347.485" x2="747.084" y2="1282.09" gradientUnits="userSpaceOnUse">
<stop stop-color="#EBEBEB"/>
<stop offset="1" stop-color="#EBEBEB" stop-opacity="0"/>
</linearGradient>
<linearGradient id="paint5_linear_91_239" x1="567.928" y1="423.999" x2="679.001" y2="1258.2" gradientUnits="userSpaceOnUse">
<stop stop-color="#EBEBEB"/>
<stop offset="1" stop-color="white" stop-opacity="0"/>
<stop offset="1" stop-color="#EBEBEB" stop-opacity="0"/>
</linearGradient>
<linearGradient id="paint6_linear_91_239" x1="513.181" y1="499.783" x2="610.982" y2="1234.3" gradientUnits="userSpaceOnUse">
<stop stop-color="#EBEBEB"/>
<stop offset="1" stop-color="#EBEBEB" stop-opacity="0"/>
</linearGradient>
<linearGradient id="paint7_linear_91_239" x1="458.343" y1="574.023" x2="543.078" y2="1210.42" gradientUnits="userSpaceOnUse">
<stop stop-color="#EBEBEB"/>
<stop offset="1" stop-color="#EBEBEB" stop-opacity="0"/>
</linearGradient>
<linearGradient id="paint8_linear_91_239" x1="403.203" y1="645.083" x2="475.3" y2="1186.55" gradientUnits="userSpaceOnUse">
<stop stop-color="#EBEBEB"/>
<stop offset="1" stop-color="#EBEBEB" stop-opacity="0"/>
</linearGradient>
<linearGradient id="paint9_linear_91_239" x1="358.182" y1="706.697" x2="417.183" y2="1149.81" gradientUnits="userSpaceOnUse">
<stop stop-color="#EBEBEB"/>
<stop offset="1" stop-color="#EBEBEB" stop-opacity="0"/>
</linearGradient>
</defs>
</svg>
