<svg width="18" height="22" viewBox="0 0 18 22" fill="none" xmlns="http://www.w3.org/2000/svg">
<circle cx="9.07881" cy="6.27803" r="4.77803" stroke="white" stroke-width="1.5" stroke-linecap="round" stroke-linejoin="round"/>
<path fill-rule="evenodd" clip-rule="evenodd" d="M1.50002 17.7016C1.49873 17.3657 1.57385 17.0339 1.7197 16.7313C2.17736 15.816 3.46798 15.3308 4.53892 15.1112C5.31128 14.9463 6.09431 14.8362 6.88217 14.7816C8.34084 14.6535 9.80793 14.6535 11.2666 14.7816C12.0544 14.8369 12.8374 14.947 13.6099 15.1112C14.6808 15.3308 15.9714 15.7702 16.4291 16.7313C16.7224 17.3481 16.7224 18.0642 16.4291 18.681C15.9714 19.6421 14.6808 20.0814 13.6099 20.2919C12.8384 20.4636 12.0551 20.5768 11.2666 20.6306C10.0794 20.7313 8.88659 20.7496 7.69681 20.6855C7.42221 20.6855 7.15677 20.6855 6.88217 20.6306C6.09663 20.5775 5.31632 20.4642 4.54807 20.2919C3.46798 20.0814 2.18652 19.6421 1.7197 18.681C1.5746 18.3749 1.49955 18.0403 1.50002 17.7016Z" stroke="white" stroke-width="1.5" stroke-linecap="round" stroke-linejoin="round"/>
</svg>
