<svg width="197" height="85" viewBox="0 0 197 85" fill="none" xmlns="http://www.w3.org/2000/svg">
<path d="M41.7503 5.984V7.008L8.66225 43.04C10.9663 48.096 16.1503 51.296 21.7183 51.04C34.7103 51.04 38.7423 37.984 38.7423 37.984L40.7263 40.992C40.7263 40.992 35.7343 52 20.6943 52C7.70225 52 2.71025 44 2.71025 44V43.04L35.7343 7.008H8.66225V10.976L2.71025 12V5.984L8.66225 4.96V5.984H41.7503ZM69.4143 4.96C82.4062 4.96 93.4143 12 93.4143 28C93.4143 44 82.4062 52 69.4143 52C56.4223 52 45.4143 44 45.4143 28C45.4143 12 56.4223 4.96 69.4143 4.96ZM71.3983 51.04C83.4303 51.04 87.3983 39.008 87.3983 28C87.3983 12 76.3903 5.984 67.4303 5.984C55.3983 5.984 51.3663 16.992 51.3663 28C51.3663 44 62.3743 51.04 71.3983 51.04ZM123.477 4.96C136.469 4.96 147.477 12 147.477 28C147.477 44 136.469 52 123.477 52C110.485 52 99.4768 44 99.4768 28C99.4768 12 110.485 4.96 123.477 4.96ZM125.461 51.04C137.493 51.04 141.461 39.008 141.461 28C141.461 12 130.453 5.984 121.493 5.984C109.461 5.984 105.429 16.992 105.429 28C105.429 44 116.437 51.04 125.461 51.04ZM195.759 5.216L175.215 46.56L176.111 48.224L171.247 52L149.743 8.608L154.543 4.832L174.703 45.408L194.863 4.768L195.759 5.216Z" fill="#FFDA79"/>
<path d="M7.27423 65.565C11.5372 65.565 15.1492 67.875 15.1492 73.125C15.1492 78.375 11.8732 81 7.58923 81C6.43423 81 3.97723 80.685 3.97723 80.685L2.02423 81V65.901L3.97723 65.565H7.27423ZM7.92523 80.685C11.8732 80.685 13.1752 76.737 13.1752 73.125C13.1752 67.875 9.56323 65.901 6.60223 65.901H3.97723V80.349C3.97723 80.349 6.62323 80.685 7.92523 80.685ZM23.7368 80.685C25.0808 80.58 26.2988 79.845 27.0338 78.711L27.3488 79.362C26.3618 80.349 24.4508 81.021 23.0858 81.021C19.9988 81.021 17.4788 79.257 17.2058 75.75C17.1848 75.54 17.1848 75.33 17.1848 75.099C17.1848 71.151 19.8098 69.177 23.0858 69.177C23.2538 69.177 23.4428 69.198 23.6108 69.198C23.6738 69.198 23.7368 69.219 23.7998 69.219C23.9048 69.24 24.0098 69.24 24.1148 69.261C24.1988 69.261 24.2618 69.282 24.3458 69.282C24.4298 69.303 24.5138 69.324 24.5978 69.345C24.6818 69.366 24.7658 69.366 24.8498 69.387C24.9128 69.408 24.9968 69.429 25.0808 69.45C25.1648 69.471 25.2488 69.513 25.3118 69.534C25.3958 69.555 25.4588 69.576 25.5428 69.618C25.6058 69.639 25.6898 69.681 25.7738 69.702C25.8368 69.744 25.8998 69.765 25.9628 69.786C26.0468 69.828 26.1308 69.87 26.1938 69.912C26.2568 69.954 26.3198 69.975 26.3828 70.017C26.4668 70.059 26.5298 70.101 26.5928 70.143C26.6348 70.164 26.6768 70.185 26.6978 70.206C27.8948 71.046 28.6928 72.348 28.8818 73.776H27.0338C24.2618 73.776 21.8888 74.994 19.1378 75.078V75.099C19.1378 79.047 21.7838 80.685 23.7368 80.685ZM22.4348 69.513C19.9148 69.513 19.2008 72.222 19.1588 74.763C21.8258 74.658 24.1568 73.503 26.8448 73.461C26.6978 72.768 26.4248 72.117 26.0468 71.529C25.9418 71.361 25.8158 71.235 25.7108 71.088C25.6898 71.067 25.6688 71.025 25.6268 71.004C25.5428 70.899 25.4378 70.794 25.3328 70.689C25.2908 70.668 25.2488 70.626 25.2278 70.605C25.1018 70.5 24.9758 70.395 24.8288 70.29C24.6818 70.185 24.5348 70.101 24.3878 70.038C24.3668 70.017 24.3248 69.996 24.2828 69.975C24.1778 69.912 24.0518 69.87 23.9258 69.807C23.9048 69.807 23.8628 69.786 23.8418 69.786C23.6948 69.723 23.5478 69.681 23.4008 69.639C23.3798 69.639 23.3378 69.618 23.3168 69.618C23.1908 69.597 23.0858 69.576 22.9598 69.555C22.9178 69.555 22.8758 69.534 22.8548 69.534C22.7078 69.513 22.5608 69.513 22.4348 69.513ZM35.7438 74.448C37.0668 74.7 40.3428 75.435 40.3428 77.724C40.3428 80.349 38.7048 81.021 35.4078 81.021C31.4598 81.021 30.4938 79.047 30.4938 79.047L31.1448 78.06C31.1448 78.06 32.4468 80.685 35.4078 80.685C37.7178 80.685 38.3688 79.362 38.3688 77.724C38.3688 76.086 37.0458 75.099 35.4078 74.763C34.1268 74.511 30.4938 74.448 30.4938 72.138C30.4938 69.849 32.4468 69.177 35.4078 69.177C37.0458 69.177 39.0198 69.534 40.0068 70.206L39.3768 71.55C38.4528 70.29 36.9828 69.534 35.4078 69.513C33.4338 69.513 32.4468 70.5 32.4468 72.138C32.4468 73.965 34.1058 74.112 35.7438 74.448ZM42.8518 81.021V69.849L44.8048 69.513V80.685L42.8518 81.021ZM43.8178 68.526C43.2928 68.526 42.8518 68.085 42.8518 67.539C42.8518 66.993 43.2928 66.552 43.8178 66.552C44.3638 66.552 44.8048 66.993 44.8048 67.539C44.8048 68.085 44.3638 68.526 43.8178 68.526ZM53.1898 79.698C56.4868 79.698 59.1118 80.349 59.1118 82.323C59.1118 84.297 56.8018 84.948 52.8538 84.948C48.9268 84.948 47.2888 82.995 47.2888 82.995L48.2548 82.008C48.2548 82.008 49.9138 84.633 52.8538 84.633C55.4998 84.633 57.1377 83.961 57.1377 82.323C57.1377 80.685 54.8278 80.034 51.8668 80.034C50.2288 80.034 47.2888 80.034 47.2888 78.06C47.2888 76.905 48.1708 76.212 48.9058 75.834C48.2338 75.099 47.8768 74.112 47.9398 73.125C47.9398 70.836 49.2418 69.177 52.8538 69.177C54.7858 69.177 56.0668 69.66 56.8228 70.437C57.6208 69.87 57.7888 68.715 57.7888 67.539L58.7758 68.19C58.7758 69.576 58.2928 70.479 57.2008 70.899C57.6208 71.571 57.8098 72.348 57.7888 73.125C57.7888 75.435 56.4868 77.073 52.8538 77.073C51.3418 77.073 50.2288 76.779 49.4518 76.254C48.9058 76.695 48.5908 77.367 48.5908 78.06C48.5908 79.698 51.2158 79.698 53.1898 79.698ZM52.8748 69.513C51.2158 69.513 49.9138 71.151 49.9138 73.125C49.9138 75.099 51.2158 76.737 52.8748 76.737C54.5128 76.737 55.8148 75.099 55.8148 73.125C55.8148 71.151 54.5128 69.513 52.8748 69.513ZM66.6361 69.177C69.2611 69.177 71.2351 70.5 71.2351 73.461V80.685L69.2611 81V73.461C69.2611 71.088 68.6101 69.513 66.3001 69.513C64.0111 69.513 62.6881 71.487 62.6881 73.461V80.685L60.7351 81V69.849L62.6881 69.513V71.613C63.4021 70.08 64.9561 69.135 66.6361 69.177Z" fill="white"/>
</svg>
