<svg width="197" height="85" viewBox="0 0 197 85" fill="none" xmlns="http://www.w3.org/2000/svg">
<path d="M41.7503 5.984V7.008L8.66225 43.04C10.9663 48.096 16.1503 51.296 21.7183 51.04C34.7103 51.04 38.7423 37.984 38.7423 37.984L40.7263 40.992C40.7263 40.992 35.7343 52 20.6943 52C7.70225 52 2.71025 44 2.71025 44V43.04L35.7343 7.008H8.66225V10.976L2.71025 12V5.984L8.66225 4.96V5.984H41.7503ZM69.4143 4.96C82.4062 4.96 93.4143 12 93.4143 28C93.4143 44 82.4062 52 69.4143 52C56.4223 52 45.4143 44 45.4143 28C45.4143 12 56.4223 4.96 69.4143 4.96ZM71.3983 51.04C83.4303 51.04 87.3983 39.008 87.3983 28C87.3983 12 76.3903 5.984 67.4303 5.984C55.3983 5.984 51.3663 16.992 51.3663 28C51.3663 44 62.3743 51.04 71.3983 51.04ZM123.477 4.96C136.469 4.96 147.477 12 147.477 28C147.477 44 136.469 52 123.477 52C110.485 52 99.4768 44 99.4768 28C99.4768 12 110.485 4.96 123.477 4.96ZM125.461 51.04C137.493 51.04 141.461 39.008 141.461 28C141.461 12 130.453 5.984 121.493 5.984C109.461 5.984 105.429 16.992 105.429 28C105.429 44 116.437 51.04 125.461 51.04ZM195.759 5.216L175.215 46.56L176.111 48.224L171.247 52L149.743 8.608L154.543 4.832L174.703 45.408L194.863 4.768L195.759 5.216Z" fill="#FFDA79"/>
<path d="M69.2742 65.565C73.5372 65.565 77.1492 67.875 77.1492 73.125C77.1492 78.375 73.8732 81 69.5892 81C68.4342 81 65.9772 80.685 65.9772 80.685L64.0242 81V65.901L65.9772 65.565H69.2742ZM69.9252 80.685C73.8732 80.685 75.1752 76.737 75.1752 73.125C75.1752 67.875 71.5632 65.901 68.6022 65.901H65.9772V80.349C65.9772 80.349 68.6232 80.685 69.9252 80.685ZM85.7368 80.685C87.0808 80.58 88.2988 79.845 89.0338 78.711L89.3488 79.362C88.3618 80.349 86.4508 81.021 85.0858 81.021C81.9988 81.021 79.4788 79.257 79.2058 75.75C79.1848 75.54 79.1848 75.33 79.1848 75.099C79.1848 71.151 81.8098 69.177 85.0858 69.177C85.2538 69.177 85.4428 69.198 85.6108 69.198C85.6738 69.198 85.7368 69.219 85.7998 69.219C85.9048 69.24 86.0098 69.24 86.1148 69.261C86.1988 69.261 86.2618 69.282 86.3458 69.282C86.4298 69.303 86.5138 69.324 86.5978 69.345C86.6818 69.366 86.7658 69.366 86.8498 69.387C86.9128 69.408 86.9968 69.429 87.0808 69.45C87.1648 69.471 87.2488 69.513 87.3118 69.534C87.3958 69.555 87.4588 69.576 87.5428 69.618C87.6058 69.639 87.6898 69.681 87.7738 69.702C87.8368 69.744 87.8998 69.765 87.9628 69.786C88.0468 69.828 88.1308 69.87 88.1938 69.912C88.2568 69.954 88.3198 69.975 88.3828 70.017C88.4668 70.059 88.5298 70.101 88.5928 70.143C88.6348 70.164 88.6768 70.185 88.6978 70.206C89.8948 71.046 90.6928 72.348 90.8818 73.776H89.0338C86.2618 73.776 83.8888 74.994 81.1378 75.078V75.099C81.1378 79.047 83.7838 80.685 85.7368 80.685ZM84.4348 69.513C81.9148 69.513 81.2008 72.222 81.1588 74.763C83.8258 74.658 86.1568 73.503 88.8448 73.461C88.6978 72.768 88.4248 72.117 88.0468 71.529C87.9418 71.361 87.8158 71.235 87.7108 71.088C87.6898 71.067 87.6688 71.025 87.6268 71.004C87.5428 70.899 87.4378 70.794 87.3328 70.689C87.2908 70.668 87.2488 70.626 87.2278 70.605C87.1018 70.5 86.9758 70.395 86.8288 70.29C86.6818 70.185 86.5348 70.101 86.3878 70.038C86.3668 70.017 86.3248 69.996 86.2828 69.975C86.1778 69.912 86.0518 69.87 85.9258 69.807C85.9048 69.807 85.8628 69.786 85.8418 69.786C85.6948 69.723 85.5478 69.681 85.4008 69.639C85.3798 69.639 85.3378 69.618 85.3168 69.618C85.1908 69.597 85.0858 69.576 84.9598 69.555C84.9178 69.555 84.8758 69.534 84.8548 69.534C84.7078 69.513 84.5608 69.513 84.4348 69.513ZM97.7438 74.448C99.0668 74.7 102.343 75.435 102.343 77.724C102.343 80.349 100.705 81.021 97.4078 81.021C93.4598 81.021 92.4938 79.047 92.4938 79.047L93.1448 78.06C93.1448 78.06 94.4468 80.685 97.4078 80.685C99.7178 80.685 100.369 79.362 100.369 77.724C100.369 76.086 99.0458 75.099 97.4078 74.763C96.1268 74.511 92.4938 74.448 92.4938 72.138C92.4938 69.849 94.4468 69.177 97.4078 69.177C99.0458 69.177 101.02 69.534 102.007 70.206L101.377 71.55C100.453 70.29 98.9828 69.534 97.4078 69.513C95.4338 69.513 94.4468 70.5 94.4468 72.138C94.4468 73.965 96.1058 74.112 97.7438 74.448ZM104.852 81.021V69.849L106.805 69.513V80.685L104.852 81.021ZM105.818 68.526C105.293 68.526 104.852 68.085 104.852 67.539C104.852 66.993 105.293 66.552 105.818 66.552C106.364 66.552 106.805 66.993 106.805 67.539C106.805 68.085 106.364 68.526 105.818 68.526ZM115.19 79.698C118.487 79.698 121.112 80.349 121.112 82.323C121.112 84.297 118.802 84.948 114.854 84.948C110.927 84.948 109.289 82.995 109.289 82.995L110.255 82.008C110.255 82.008 111.914 84.633 114.854 84.633C117.5 84.633 119.138 83.961 119.138 82.323C119.138 80.685 116.828 80.034 113.867 80.034C112.229 80.034 109.289 80.034 109.289 78.06C109.289 76.905 110.171 76.212 110.906 75.834C110.234 75.099 109.877 74.112 109.94 73.125C109.94 70.836 111.242 69.177 114.854 69.177C116.786 69.177 118.067 69.66 118.823 70.437C119.621 69.87 119.789 68.715 119.789 67.539L120.776 68.19C120.776 69.576 120.293 70.479 119.201 70.899C119.621 71.571 119.81 72.348 119.789 73.125C119.789 75.435 118.487 77.073 114.854 77.073C113.342 77.073 112.229 76.779 111.452 76.254C110.906 76.695 110.591 77.367 110.591 78.06C110.591 79.698 113.216 79.698 115.19 79.698ZM114.875 69.513C113.216 69.513 111.914 71.151 111.914 73.125C111.914 75.099 113.216 76.737 114.875 76.737C116.513 76.737 117.815 75.099 117.815 73.125C117.815 71.151 116.513 69.513 114.875 69.513ZM128.636 69.177C131.261 69.177 133.235 70.5 133.235 73.461V80.685L131.261 81V73.461C131.261 71.088 130.61 69.513 128.3 69.513C126.011 69.513 124.688 71.487 124.688 73.461V80.685L122.735 81V69.849L124.688 69.513V71.613C125.402 70.08 126.956 69.135 128.636 69.177Z" fill="white"/>
</svg>
